# xmcd CD database file
#
# Track frame offsets:
#	150
#	11480
#	24130
#	37994
#	49751
#	63923
#	79203
#	92785
#	106604
#	120288
#	132831
#	147989
#	160972
#	179575
#	190989
#
# Disc length: 2816 seconds
#
# Revision: 2
# Processed by: cddbd v1.5.2PL0 Copyright (c) Steve Scherf et al.
# Submitted via: CDex 1.70beta2
#
DISCID=b90afe0f
DTITLE=Various Artist - COUNTRY TIME - Der grosse Country-Party Spass
DYEAR=2007
DGENRE=Country
TTITLE0=Smokestack Lightnin` - Unknown Stuntman
TTITLE1=The Bellamy Brothers - Let Your Love Flow (Remake '91)
TTITLE2=Alan Jackson - Pop A Top
TTITLE3=Sherrié Austin - Put Your Heart Into It
TTITLE4=Mark Bender - Wir haben es uns verdient
TTITLE5=Daniel Kübleböck - Born in Bavaria (Partymix)
TTITLE6=Nicki - Nie im Leben (No No Never)
TTITLE7=Collin Raye - That's My Story
TTITLE8=Truck Stop - Damenwahl (Western Dance Version)
TTITLE9=George Jones - White Lightning
TTITLE10=Mary Chapin Carpenter - Down At The Twist And Shout
TTITLE11=Martina McBride - I Love You
TTITLE12=Kenny Chesney - She Thinks My Tractor's Sexy
TTITLE13=Katja Kaye - Heute hier, morgen dort
TTITLE14=Brooks and Dunn - Only In America
EXTD=YEAR: 2007
EXTT0=
EXTT1=
EXTT2=
EXTT3=
EXTT4=
EXTT5=
EXTT6=
EXTT7=
EXTT8=
EXTT9=
EXTT10=
EXTT11=
EXTT12=
EXTT13=
EXTT14=
PLAYORDER=
